<?xml version="1.0" encoding="utf-8"?>
<!-- Generator: Adobe Illustrator 16.0.4, SVG Export Plug-In . SVG Version: 6.00 Build 0)  -->
<!DOCTYPE svg PUBLIC "-//W3C//DTD SVG 1.1//EN" "http://www.w3.org/Graphics/SVG/1.1/DTD/svg11.dtd">
<svg version="1.1" id="Layer_1" xmlns="http://www.w3.org/2000/svg" xmlns:xlink="http://www.w3.org/1999/xlink" x="0px" y="0px"
	 width="63.665px" height="18.592px" viewBox="1.064 9.394 63.665 18.592" enable-background="new 1.064 9.394 63.665 18.592"
	 xml:space="preserve">
<g transform="matrix(8,0,0,-8,12,18)">
	<path d="M0,0c0.162,0,0.29,0.129,0.29,0.29c0,0.163-0.128,0.292-0.29,0.292c-0.16,0-0.288-0.129-0.288-0.292
		C-0.288,0.129-0.16,0,0,0 M-1.359-0.367L-1.359-0.367c-0.006,0.006-0.008,0.012-0.008,0.019c0,0.016,0.012,0.03,0.029,0.03
		l0.846-0.002c0.043,0,0.076,0.033,0.076,0.074c0,0.031-0.016,0.053-0.047,0.07L-1.23,0.189c-0.014,0.01-0.024,0.026-0.024,0.043
		c0,0.014,0.006,0.028,0.014,0.036c0,0,2.014,1.781,6.471,0.054L6.456,0.92c0.012,0.006,0.025,0.01,0.041,0.01
		c0.051,0,0.094-0.043,0.094-0.094c0-0.02-0.006-0.035-0.014-0.049L5.854-0.111L6.577-1.01c0.008-0.013,0.014-0.031,0.014-0.049
		c0-0.052-0.043-0.095-0.094-0.095c-0.016,0-0.029,0.004-0.041,0.009l-1.225,0.6C5.231-0.545,0.97-2.24-1.359-0.367"/>
</g>
</svg>
