<?xml version="1.0" encoding="utf-8"?>
<!-- Generator: Adobe Illustrator 16.0.4, SVG Export Plug-In . SVG Version: 6.00 Build 0)  -->
<!DOCTYPE svg PUBLIC "-//W3C//DTD SVG 1.1//EN" "http://www.w3.org/Graphics/SVG/1.1/DTD/svg11.dtd">
<svg version="1.1" id="Layer_1" xmlns="http://www.w3.org/2000/svg" xmlns:xlink="http://www.w3.org/1999/xlink" x="0px" y="0px"
	 width="35.812px" height="10.458px" viewBox="14.991 13.46 35.812 10.458" enable-background="new 14.991 13.46 35.812 10.458"
	 xml:space="preserve">
<g transform="matrix(8,0,0,-8,12,18)">
	<path d="M1.143-0.038c0.091,0,0.163,0.073,0.163,0.163c0,0.092-0.072,0.164-0.163,0.164c-0.09,0-0.162-0.073-0.162-0.164
		C0.981,0.035,1.053-0.038,1.143-0.038 M0.378-0.244L0.378-0.244C0.375-0.241,0.374-0.237,0.374-0.233
		c0,0.009,0.007,0.017,0.016,0.017l0.476-0.001c0.024,0,0.043,0.019,0.043,0.042c0,0.017-0.009,0.03-0.026,0.039L0.451,0.069
		C0.443,0.074,0.437,0.083,0.437,0.093c0,0.008,0.003,0.016,0.008,0.02c0,0,1.133,1.002,3.64,0.03L4.774,0.48
		c0.007,0.003,0.014,0.006,0.023,0.006c0.029,0,0.053-0.024,0.053-0.053c0-0.011-0.003-0.02-0.008-0.028L4.436-0.1l0.407-0.506
		C4.847-0.613,4.85-0.623,4.85-0.634c0-0.029-0.024-0.053-0.053-0.053c-0.009,0-0.016,0.002-0.023,0.005L4.085-0.344
		C4.085-0.344,1.688-1.298,0.378-0.244"/>
</g>
</svg>
